[IMG]http://i981.photobucket.com/albums/ae294/fasamoo/gogo.gif[/IMG]

[img]http://img136.imageshack.us/img136/436/thegrayzonezy4.jpg[/img]

[IMG]http://i981.photobucket.com/albums/ae294/fasamoo/plot.gif[/IMG]

The true story of Dr. Miklos Nyiszli, a Hungarian Jew chosen by Josef Mengele to be the head pathologist at Auschwitz. Nyiszli was one of Auschwitz's Sonderkommandos - Special Squads of Jewish prisoners placed by the Nazis in the excruciating moral dilemma of helping to exterminate fellow Jews in exchange for a few more months of life. Together, the Sonderkommandos struggled to organize the only armed revolt that would ever take place at Auschwitz. As the rebellion is about to commence, a group from the unit discovers a 14-year-old girl who has miraculously survived a gassing. A catalyst for their desperate attempt at personal redemption, the men become obsessed with saving this one child, even if doing so endangers the uprising which could save thousands. To what terrible lengths are we willing to go to save our own lives, and what in turn would we sacrifice to save the lives of others?  
 
[IMG]http://i981.photobucket.com/albums/ae294/fasamoo/screenshots.gif[/IMG]

[IMG]http://i981.photobucket.com/albums/ae294/fasamoo/greyzone_20100526-04342562.jpg[/IMG]
[IMG]http://i981.photobucket.com/albums/ae294/fasamoo/greyzone_20100526-04340907.jpg[/IMG]
[IMG]http://i981.photobucket.com/albums/ae294/fasamoo/greyzone_20100526-04312079.jpg[/IMG]
[IMG]http://i981.photobucket.com/albums/ae294/fasamoo/greyzone_20100526-04304045.jpg[/IMG]
[IMG]http://i981.photobucket.com/albums/ae294/fasamoo/greyzone_20100526-04264818.jpg[/IMG]
[IMG]http://i981.photobucket.com/albums/ae294/fasamoo/greyzone_20100526-04254729.jpg[/IMG]
[IMG]http://i981.photobucket.com/albums/ae294/fasamoo/greyzone_20100526-04244785.jpg[/IMG]
[IMG]http://i981.photobucket.com/albums/ae294/fasamoo/greyzone_20100526-04191765.jpg[/IMG]
[IMG]http://i981.photobucket.com/albums/ae294/fasamoo/greyzone_20100526-04345006.jpg[/IMG]

[IMG]http://i981.photobucket.com/albums/ae294/fasamoo/info.gif[/IMG]

General
Complete name                    : The Grey Zone 2001 DVDRip GoGoThe Grey Zone 2001 DVDRip GoGo.avi
IMDB Link                        : http://www.imdb.com/title/tt0252480/
Format                           : AVI
Format/Info                      : Audio Video Interleave
File size                        : 700 MiB
Duration                         : 1h 48mn
Overall bit rate                 : 902 Kbps
Writing application              : VirtualDubMod 1.5.4.1 (build 2178/release)
Writing library                  : VirtualDubMod build 2178/release

Video
ID                               : 0
Format                           : MPEG-4 Visual
Format profile                   : Advanced Simple@L5
Format settings, BVOP            : Yes
Format settings, QPel            : No
Format settings, GMC             : No warppoints
Format settings, Matrix          : Custom
Codec ID                         : XVID
Codec ID/Hint                    : XviD
Duration                         : 1h 48mn
Bit rate                         : 776 Kbps
Width                            : 720 pixels
Height                           : 384 pixels
Display aspect ratio             : 1.875
Frame rate                       : 23.976 fps
Resolution                       : 8 bits
Colorimetry                      : 4:2:0
Scan type                        : Progressive
Bits/(Pixel*Frame)               : 0.117
Stream size                      : 603 MiB (86%)
Writing library                  : XviD 1.2.1 (UTC 2008-12-04)

Audio
ID                               : 1
Format                           : MPEG Audio
Format version                   : Version 1
Format profile                   : Layer 3
Mode                             : Joint stereo
Format_Settings_ModeExtension    : MS Stereo
Codec ID                         : 55
Codec ID/Hint                    : MP3
Duration                         : 1h 48mn
Bit rate mode                    : Variable
Bit rate                         : 113 Kbps
Nominal bit rate                 : 128 Kbps
Channel(s)                       : 2 channels
Sampling rate                    : 48.0 KHz
Stream size                      : 87.8 MiB (13%)
Alignment                        : Aligned on interleaves
Interleave, duration             : 24 ms (0.58 video frame)
Interleave, preload duration     : 543 ms
Writing library                  : LAME3.98r
Encoding settings                : -m j -V 4 -q 2 -lowpass 17 --abr 128
Language                         : English
Subtitles                        : English,Espanol.(.IDX+*.SUB)
                                 : English.(.srt)
Genre                            : Drama                                     

[IMG]http://i981.photobucket.com/albums/ae294/fasamoo/pleaseseed.gif[/IMG] 